<svg width="200" height="180" viewbox="0 0 200 180" xmlns="http://www.w3.org/2000/svg"><defs><filter id="b" x="-2%" y="-15%" width="104%" height="130%"><feGaussianBlur stdDeviation="2.2" result="b"/><feMerge><feMergeNode in="b"/><feMergeNode in="SourceGraphic"/></feMerge></filter><filter id="a" x="-30%" y="-55%" width="160%" height="210%"><feGaussianBlur stdDeviation="5" result="b"/><feMerge><feMergeNode in="b"/><feMergeNode in="SourceGraphic"/></feMerge></filter><linearGradient id="c" x1="0" y1="0" x2="1" y2="0"><stop offset="0%" stop-color="#060a0f"/><stop offset="14%" stop-color="#060a0f" stop-opacity="0"/></linearGradient><pattern id="d" x="0" y="0" width="200" height="3" patternUnits="userSpaceOnUse"><path opacity=".12" d="M0 2h200v1H0z"/></pattern></defs><path fill="#060a0f" d="M0 0h200v180H0z"/><path transform="matrix(8 0 0 8 26 -2)" filter="url(#a)" fill="#ebb134" stroke="#000" stroke-width=".15" d="M8 2h3v1h2v1h2v1h2v2h1v2h1v2h1v3h-2v-2h-1v-1h-1v-1h-2V9h-1V8h-1V6h-1V5h-1V4H8m3 5h1v1h1v1h-1v1h-1v1h-1v1H9v1H8v1H7v1H6v1H5v1H4v1H3v1H2v-1H1v-1h1v-1h1v-1h1v-1h1v-1h1v-1h1v-1h1v-1h1v-1h1v-1h1"/><g filter="url(#b)"><path fill="#f60" opacity=".22" d="M0 92h110v3H0z"/><path fill="#ebb134" opacity=".32" d="M0 22h20v4H0z"/><path fill="#f0922a" opacity=".44" d="M0 50h104v4H0z"/><path fill="#ebb134" opacity=".54" d="M0 68h128v5H0z"/><path fill="#f0922a" opacity=".66" d="M0 80h105v5H0z"/><path fill="#ffd166" opacity=".92" d="M0 90h96v7H0z"/><path fill="#f0922a" opacity=".66" d="M0 104h90v5H0z"/><path fill="#ebb134" opacity=".54" d="M0 116h75v5H0z"/><path fill="#f0922a" opacity=".38" d="M0 132h45v4H0z"/><path fill="#ffd166" opacity=".9" d="M10 40h30v5H10z"/><path fill="#ffd166" opacity=".85" d="M40 78h22v5H40z"/></g><path fill="url(#c)" d="M0 0h200v180H0z"/><path fill="url(#d)" d="M0 0h200v180H0z"/></svg>